<svg id="Layer_1" data-name="Layer 1" xmlns="http://www.w3.org/2000/svg" xmlns:xlink="http://www.w3.org/1999/xlink" viewBox="0 0 196.99 35.21"><defs><style>.cls-1,.cls-2{fill:none;stroke-miterlimit:10;stroke-width:2px;}.cls-1{stroke:url(#linear-gradient);}.cls-2{stroke:url(#linear-gradient-2);}.cls-3{fill:#00fff4;}.cls-4{fill:#00a2de;}</style><linearGradient id="linear-gradient" x1="11.49" y1="33.95" x2="39.63" y2="33.95" gradientUnits="userSpaceOnUse"><stop offset="0" stop-color="#00a7bf"/><stop offset="1" stop-color="#00fff4"/></linearGradient><linearGradient id="linear-gradient-2" x1="31.57" y1="-48.44" x2="59.71" y2="-48.44" gradientTransform="translate(60.49 -23.92) rotate(178.72)" xlink:href="#linear-gradient"/></defs><title>logo3</title><path class="cls-1" d="M25.11,22.08H12.49V44.91s29.1,7.72,25.9-21.71l-.06-.53" transform="translate(-2.01 -11.64)"/><path class="cls-2" d="M16.66,37.4l12.62-.28-.51-22.83S-.5,7.22,3.36,36.57l.07.53" transform="translate(-2.01 -11.64)"/><path class="cls-3" d="M50.31,26.87H80.56q1.77,0,1.77,2.07T80.56,31H50.31v6.47q0,4.4,8.35,4.4h21.9a1.72,1.72,0,0,1,1.92,2q0,2.13-1.92,2.13H58.51q-13.36,0-13.36-8.3V20.09q0-8.45,13.81-8.45h6q1.82,0,1.82,2t-1.82,2h-4q-10.62,0-10.62,4.45Z" transform="translate(-2.01 -11.64)"/><path class="cls-3" d="M89.58,46H87.41v-20h2.17Z" transform="translate(-2.01 -11.64)"/><path class="cls-3" d="M95.08,29a1.37,1.37,0,0,1-1-.4,1.33,1.33,0,0,1-.41-1,1.39,1.39,0,0,1,1.4-1.41,1.41,1.41,0,0,1,1,.4,1.35,1.35,0,0,1,.42,1,1.34,1.34,0,0,1-.42,1A1.39,1.39,0,0,1,95.08,29Zm1.06,17H94V32.45h2.17Z" transform="translate(-2.01 -11.64)"/><path class="cls-3" d="M106.8,45.86a4.19,4.19,0,0,1-2,.42q-3.56,0-3.56-4v-8H98.9V32.45h2.33v-3.3l2.17-.7v4h3.41V34.3h-3.41v7.63a3.16,3.16,0,0,0,.46,1.94,1.85,1.85,0,0,0,1.53.58A2.28,2.28,0,0,0,106.8,44Z" transform="translate(-2.01 -11.64)"/><path class="cls-3" d="M120.58,39.76H111a5.06,5.06,0,0,0,1.22,3.49,4.19,4.19,0,0,0,3.2,1.23,6.64,6.64,0,0,0,4.2-1.51v2a7.85,7.85,0,0,1-4.72,1.29,5.72,5.72,0,0,1-4.51-1.84,7.55,7.55,0,0,1-1.64-5.19,7.4,7.4,0,0,1,1.79-5.15,5.74,5.74,0,0,1,4.45-2,5.09,5.09,0,0,1,4.11,1.72,7.16,7.16,0,0,1,1.45,4.77Zm-2.22-1.84a4.42,4.42,0,0,0-.9-2.92A3.09,3.09,0,0,0,115,34a3.51,3.51,0,0,0-2.6,1.1A5,5,0,0,0,111,37.93Z" transform="translate(-2.01 -11.64)"/><path class="cls-4" d="M128.57,26.47a8.29,8.29,0,0,1,1.92.2,10.12,10.12,0,0,1,1.44.44,8.72,8.72,0,0,1,1.22.62l-1.52,2.58a6,6,0,0,0-.89-.43,8.72,8.72,0,0,0-1-.31,4.65,4.65,0,0,0-1.21-.15,2.65,2.65,0,0,0-1.19.24,2.58,2.58,0,0,0-.8.6A2.42,2.42,0,0,0,126,31.8a1.72,1.72,0,0,0,.74,1.53,6.37,6.37,0,0,0,1.86.81q1.12.32,2.42.61a9.49,9.49,0,0,1,2.42.91,5.26,5.26,0,0,1,1.86,1.71,5.34,5.34,0,0,1,.74,3,5.67,5.67,0,0,1-.51,2.37,5.77,5.77,0,0,1-1.46,2A7.07,7.07,0,0,1,131.71,46a9.41,9.41,0,0,1-3.14.49,9.52,9.52,0,0,1-2.46-.28,9.92,9.92,0,0,1-1.87-.68,9.31,9.31,0,0,1-1.41-.85q-.59-.44-1.06-.74l1.54-2.6a10,10,0,0,0,3,1.73,7.48,7.48,0,0,0,2.27.46,6.55,6.55,0,0,0,1.61-.2,5.34,5.34,0,0,0,1.45-.59,3.21,3.21,0,0,0,1-1,2.45,2.45,0,0,0,.39-1.38,2.19,2.19,0,0,0-.43-1.41,3.47,3.47,0,0,0-1.14-.91,7.43,7.43,0,0,0-1.61-.6L128,37q-.93-.26-1.84-.61a5.76,5.76,0,0,1-1.61-.93A4.35,4.35,0,0,1,123.45,34a4.9,4.9,0,0,1-.43-2.18,4.8,4.8,0,0,1,.65-2.58,5.47,5.47,0,0,1,1.54-1.65,6.17,6.17,0,0,1,1.83-.87A6,6,0,0,1,128.57,26.47Z" transform="translate(-2.01 -11.64)"/><path class="cls-4" d="M145.78,46.77a6.21,6.21,0,0,1-5.08-2.08,8.34,8.34,0,0,1-1.72-5.5,7.38,7.38,0,0,1,1.84-5.12,6.25,6.25,0,0,1,4.89-2,5.81,5.81,0,0,1,4.82,2.13,8.23,8.23,0,0,1,1.7,5.3,7.82,7.82,0,0,1-1.79,5.16A5.77,5.77,0,0,1,145.78,46.77Zm-.09-1.68a3.52,3.52,0,0,0,1.92-.51,5.54,5.54,0,0,0,1.63-1.86A7.07,7.07,0,0,0,150,39a6.46,6.46,0,0,0-1.12-3.68,3.7,3.7,0,0,0-3.27-1.66,3.88,3.88,0,0,0-3.32,1.59,6.83,6.83,0,0,0-1.17,4.15,6,6,0,0,0,.84,3.41,5.78,5.78,0,0,0,1.69,1.72A3.81,3.81,0,0,0,145.69,45.09Z" transform="translate(-2.01 -11.64)"/><path class="cls-4" d="M156.33,32.25V31.14a5.82,5.82,0,0,1,1.3-4.12,4.63,4.63,0,0,1,3.55-1.39,6.42,6.42,0,0,1,1.6.2,3.77,3.77,0,0,1,1.15.45l-.9,1.8a5.68,5.68,0,0,0-.81-.43,2.81,2.81,0,0,0-1.18-.28,2.49,2.49,0,0,0-2.1.79,2.63,2.63,0,0,0-.43,1.41c-.06.66-.09,1.55-.09,2.68h3.36l-.2,1.76h-3.16V46.53h-2.09V34H154.4V32.25Z" transform="translate(-2.01 -11.64)"/><path class="cls-4" d="M162.55,32.25h2.06V28.64h2.09v3.61h3.48L170,34.06H166.7v8.25a4.11,4.11,0,0,0,.4,2,1.34,1.34,0,0,0,1.26.74,6.36,6.36,0,0,0,1.16-.14c.47-.09.77-.16.93-.21l.16,1.81-1.12.17a11.12,11.12,0,0,1-1.34.11,3.79,3.79,0,0,1-2.61-.83,4,4,0,0,1-.93-3.08V34.06h-2.06Z" transform="translate(-2.01 -11.64)"/><path class="cls-4" d="M184.49,40.3h-9.56a5.06,5.06,0,0,0,1.22,3.49,4.19,4.19,0,0,0,3.2,1.23,6.64,6.64,0,0,0,4.2-1.51v2a7.85,7.85,0,0,1-4.72,1.29A5.72,5.72,0,0,1,174.32,45a7.55,7.55,0,0,1-1.64-5.19,7.4,7.4,0,0,1,1.79-5.15,5.74,5.74,0,0,1,4.45-2A5.09,5.09,0,0,1,183,34.39a7.16,7.16,0,0,1,1.45,4.77Zm-2.22-1.84a4.42,4.42,0,0,0-.9-2.92,3.09,3.09,0,0,0-2.48-1,3.51,3.51,0,0,0-2.6,1.1A5,5,0,0,0,175,38.47Z" transform="translate(-2.01 -11.64)"/><path class="cls-4" d="M199,46.53h-3L190,40h-.05v6.5h-2.17v-20h2.17v12.7H190l5.69-6.2h2.84l-6.28,6.53Z" transform="translate(-2.01 -11.64)"/></svg>