<svg id="Layer_1" data-name="Layer 1" xmlns="http://www.w3.org/2000/svg" xmlns:xlink="http://www.w3.org/1999/xlink" viewBox="0 0 173.87 48.9"><defs><style>.cls-1{fill:url(#linear-gradient);}.cls-2{fill:url(#linear-gradient-2);}.cls-3{font-size:45.96px;font-family:NeuropolXRg-Regular, Neuropol X;}.cls-4,.cls-5,.cls-6,.cls-7{font-size:22.98px;}.cls-4{font-family:MicrosoftNewTaiLue, Microsoft New Tai Lue;}.cls-5{font-family:ModernSans, Modern Sans;}.cls-6{font-family:EuphemiaCAS, Euphemia;}.cls-7{font-family:MicrosoftTaiLe, Microsoft Tai Le;}.cls-8{fill:url(#linear-gradient-3);}</style><linearGradient id="linear-gradient" x1="25.09" y1="105.89" x2="39.91" y2="80.22" gradientUnits="userSpaceOnUse"><stop offset="0" stop-color="#00fff4"/><stop offset="1" stop-color="#00a7bf"/></linearGradient><linearGradient id="linear-gradient-2" x1="74.31" y1="6.64" x2="89.13" y2="-19.02" gradientTransform="translate(115.33 99.04) rotate(-178.37)" xlink:href="#linear-gradient"/><linearGradient id="linear-gradient-3" x1="56.94" y1="97.11" x2="190.98" y2="97.11" gradientUnits="userSpaceOnUse"><stop offset="0" stop-color="#00a7bf"/><stop offset="1" stop-color="#00fff4"/></linearGradient></defs><title>logo</title><path class="cls-1" d="M32.5,102.46l4.46-.13A1.43,1.43,0,0,0,38.35,101l.76-11.81c0-.09,0-1.83,0-1.92-.38-3.52-3.77-4.79-7.23-3.94-4.62,1.13-11.65,6.55-11.9,17.21a1.42,1.42,0,0,1-1.38,1.37h0a1.42,1.42,0,0,1-1.47-1.49c.27-5.7,2.76-25.11,24-19.47a.55.55,0,0,1,.41.51l-.27,22.27a1.43,1.43,0,0,1-1.39,1.41l-7,.2a1.41,1.41,0,0,1-.83-2.58l.46-.26Z" transform="translate(-17.13 -73.69)"/><path class="cls-2" d="M33.73,93.51H29.27a1.43,1.43,0,0,0-1.42,1.3l-1.1,11.79c0,.09-.06,1.83-.05,1.92.28,3.53,3.63,4.89,7.12,4.14,4.65-1,11.83-6.22,12.38-16.86a1.42,1.42,0,0,1,1.42-1.33h0A1.42,1.42,0,0,1,49,96c-.44,5.69-3.47,25-24.52,18.78a.55.55,0,0,1-.39-.52L25,92a1.43,1.43,0,0,1,1.43-1.37h7a1.41,1.41,0,0,1,.75,2.61l-.47.25Z" transform="translate(-17.13 -73.69)"/><text class="cls-3" transform="translate(37.1 38.88)">E<tspan class="cls-4" x="39.11" y="0">lite</tspan><tspan class="cls-5" x="70.05" y="0">S</tspan><tspan class="cls-6" x="84.46" y="0">oft</tspan><tspan class="cls-7" x="113.33" y="0">ek</tspan></text><path class="cls-8" d="M61.62,95.2H89.11q1.61,0,1.61,1.88T89.11,99H61.62v5.88q0,4,7.58,4h19.9a1.56,1.56,0,0,1,1.75,1.79q0,1.93-1.75,1.93h-20q-12.13,0-12.13-7.54V89q0-7.68,12.55-7.68h5.42q1.65,0,1.65,1.84T74.91,85H71.28q-9.65,0-9.65,4Z" transform="translate(-17.13 -73.69)"/><path class="cls-8" d="M97,112.58H95.2v-17H97Z" transform="translate(-17.13 -73.69)"/><path class="cls-8" d="M101.71,98.17a1.16,1.16,0,0,1-.84-.34,1.14,1.14,0,0,1-.35-.85,1.18,1.18,0,0,1,1.19-1.2,1.19,1.19,0,0,1,.86.34,1.2,1.2,0,0,1,0,1.7A1.18,1.18,0,0,1,101.71,98.17Zm.9,14.41h-1.84V101.09h1.84Z" transform="translate(-17.13 -73.69)"/><path class="cls-8" d="M111.66,112.47a3.55,3.55,0,0,1-1.72.36q-3,0-3-3.37v-6.8h-2v-1.57h2V98.28l1.84-.59v3.4h2.9v1.57h-2.9v6.47a2.68,2.68,0,0,0,.39,1.65,1.57,1.57,0,0,0,1.3.49,1.93,1.93,0,0,0,1.2-.38Z" transform="translate(-17.13 -73.69)"/><path class="cls-8" d="M123.36,107.29h-8.11a4.29,4.29,0,0,0,1,3,3.56,3.56,0,0,0,2.71,1,5.65,5.65,0,0,0,3.57-1.28v1.73a6.67,6.67,0,0,1-4,1.1,4.86,4.86,0,0,1-3.83-1.57,6.41,6.41,0,0,1-1.39-4.4,6.28,6.28,0,0,1,1.52-4.37,4.88,4.88,0,0,1,3.78-1.69,4.32,4.32,0,0,1,3.49,1.46,6.08,6.08,0,0,1,1.23,4.05Zm-1.88-1.56a3.75,3.75,0,0,0-.77-2.48,2.62,2.62,0,0,0-2.1-.89,3,3,0,0,0-2.21.93,4.22,4.22,0,0,0-1.12,2.43Z" transform="translate(-17.13 -73.69)"/><path class="cls-8" d="M131.19,95.55a7,7,0,0,1,1.63.17,8.75,8.75,0,0,1,1.22.38,7.36,7.36,0,0,1,1,.52l-1.29,2.19a5.07,5.07,0,0,0-.76-.37,7.43,7.43,0,0,0-.82-.26,4,4,0,0,0-1-.13,2.24,2.24,0,0,0-1,.21,2.21,2.21,0,0,0-.68.51,2.08,2.08,0,0,0-.52,1.31,1.46,1.46,0,0,0,.63,1.3,5.4,5.4,0,0,0,1.58.69q1,.26,2.05.52a8,8,0,0,1,2.05.77,4.45,4.45,0,0,1,1.58,1.45,4.52,4.52,0,0,1,.63,2.56,4.82,4.82,0,0,1-.43,2,4.9,4.9,0,0,1-1.24,1.67,5.94,5.94,0,0,1-2,1.13,8,8,0,0,1-2.67.41,8.17,8.17,0,0,1-2.09-.24,8.53,8.53,0,0,1-1.59-.58,7.89,7.89,0,0,1-1.2-.72q-.51-.37-.9-.63l1.31-2.2a8.52,8.52,0,0,0,2.53,1.47,6.38,6.38,0,0,0,1.93.39,5.52,5.52,0,0,0,1.37-.17,4.52,4.52,0,0,0,1.23-.5,2.75,2.75,0,0,0,.88-.84,2.08,2.08,0,0,0,.33-1.17,1.86,1.86,0,0,0-.37-1.2,2.94,2.94,0,0,0-1-.77,6.33,6.33,0,0,0-1.37-.51l-1.56-.41a16.18,16.18,0,0,1-1.56-.52,4.88,4.88,0,0,1-1.37-.79,3.68,3.68,0,0,1-1-1.24,4.17,4.17,0,0,1-.37-1.85A4.07,4.07,0,0,1,127,97.9a4.63,4.63,0,0,1,1.31-1.4,5.23,5.23,0,0,1,1.55-.74A5.11,5.11,0,0,1,131.19,95.55Z" transform="translate(-17.13 -73.69)"/><path class="cls-8" d="M145.8,112.78a5.27,5.27,0,0,1-4.31-1.76,7.09,7.09,0,0,1-1.46-4.67,6.26,6.26,0,0,1,1.56-4.34,5.3,5.3,0,0,1,4.15-1.74,4.93,4.93,0,0,1,4.09,1.81,7,7,0,0,1,1.44,4.5,6.63,6.63,0,0,1-1.52,4.38A4.9,4.9,0,0,1,145.8,112.78Zm-.08-1.42a3,3,0,0,0,1.63-.44,4.68,4.68,0,0,0,1.39-1.58,6,6,0,0,0,.69-3.11,5.48,5.48,0,0,0-.95-3.12,3.14,3.14,0,0,0-2.78-1.41,3.3,3.3,0,0,0-2.82,1.35,5.79,5.79,0,0,0-1,3.52,5,5,0,0,0,.71,2.9,4.92,4.92,0,0,0,1.44,1.46A3.23,3.23,0,0,0,145.72,111.36Z" transform="translate(-17.13 -73.69)"/><path class="cls-8" d="M154.75,100.46v-.94a4.94,4.94,0,0,1,1.11-3.5,3.93,3.93,0,0,1,3-1.18,5.49,5.49,0,0,1,1.36.17,3.21,3.21,0,0,1,1,.38l-.76,1.53a4.7,4.7,0,0,0-.69-.36,2.39,2.39,0,0,0-1-.24A2.11,2.11,0,0,0,157,97a2.24,2.24,0,0,0-.37,1.2q-.07.84-.07,2.28h2.85l-.17,1.49h-2.68v10.63h-1.77V102h-1.64v-1.49Z" transform="translate(-17.13 -73.69)"/><path class="cls-8" d="M160,100.46h1.75V97.4h1.77v3.06h3l-.19,1.54h-2.76v7a3.5,3.5,0,0,0,.34,1.67,1.14,1.14,0,0,0,1.07.63,5.22,5.22,0,0,0,1-.12l.79-.17.13,1.54-.95.14a9.29,9.29,0,0,1-1.14.1,3.21,3.21,0,0,1-2.22-.71,3.43,3.43,0,0,1-.79-2.61V102H160Z" transform="translate(-17.13 -73.69)"/><path class="cls-8" d="M178.66,107.29h-8.11a4.29,4.29,0,0,0,1,3,3.56,3.56,0,0,0,2.71,1,5.65,5.65,0,0,0,3.57-1.28v1.73a6.67,6.67,0,0,1-4,1.1,4.86,4.86,0,0,1-3.83-1.57,6.41,6.41,0,0,1-1.39-4.4,6.28,6.28,0,0,1,1.52-4.37,4.88,4.88,0,0,1,3.78-1.69,4.32,4.32,0,0,1,3.49,1.46,6.08,6.08,0,0,1,1.23,4.05Zm-1.88-1.56a3.75,3.75,0,0,0-.77-2.48,2.62,2.62,0,0,0-2.1-.89,3,3,0,0,0-2.21.93,4.22,4.22,0,0,0-1.12,2.43Z" transform="translate(-17.13 -73.69)"/><path class="cls-8" d="M191,112.58H188.4l-5.07-5.52h0v5.52h-1.84v-17h1.84v10.78h0l4.83-5.26h2.41l-5.33,5.54Z" transform="translate(-17.13 -73.69)"/></svg>