<svg id="Layer_1" data-name="Layer 1" xmlns="http://www.w3.org/2000/svg" xmlns:xlink="http://www.w3.org/1999/xlink" viewBox="0 0 180.39 48.94"><defs><style>.cls-1{font-size:46px;fill:#00fff4;font-family:NeuropolXRg-Regular, Neuropol X;}.cls-2,.cls-4{font-size:24.62px;}.cls-2{font-family:MicrosoftNewTaiLue, Microsoft New Tai Lue;}.cls-3{fill:url(#linear-gradient);}.cls-4{fill:#00a2de;font-family:ModernSans, Modern Sans;}.cls-5{font-family:EuphemiaCAS, Euphemia;letter-spacing:0em;}.cls-6{font-family:MicrosoftTaiLe, Microsoft Tai Le;letter-spacing:0em;}.cls-7,.cls-8{fill:none;stroke-miterlimit:10;stroke-width:2px;}.cls-7{stroke:url(#linear-gradient-6);}.cls-8{stroke:url(#linear-gradient-7);}</style><linearGradient id="linear-gradient" x1="46.16" y1="102.11" x2="114.75" y2="102.11" gradientUnits="userSpaceOnUse"><stop offset="0" stop-color="#00a7bf"/><stop offset="1" stop-color="#00fff4"/></linearGradient><linearGradient id="linear-gradient-6" x1="15.23" y1="105.66" x2="41" y2="105.66" xlink:href="#linear-gradient"/><linearGradient id="linear-gradient-7" x1="29.38" y1="19.01" x2="55.16" y2="19.01" gradientTransform="translate(62.06 116.06) rotate(178.72)" xlink:href="#linear-gradient"/></defs><title>logo2</title><text class="cls-1" transform="translate(36.84 38.91)">E<tspan class="cls-2" x="39.15" y="0">lite</tspan></text><path class="cls-3" d="M50.85,100.2H78.36q1.61,0,1.61,1.89T78.36,104H50.85v5.89q0,4,7.59,4H78.36a1.57,1.57,0,0,1,1.75,1.79q0,1.93-1.75,1.93H58.3q-12.14,0-12.14-7.54V94q0-7.68,12.56-7.68h5.43q1.66,0,1.66,1.84T64.15,90H60.51q-9.66,0-9.66,4Z" transform="translate(-6.61 -78.67)"/><path class="cls-3" d="M86.56,117.58h-2V99.36h2Z" transform="translate(-6.61 -78.67)"/><path class="cls-3" d="M91.56,102.15a1.25,1.25,0,0,1-.9-.36,1.22,1.22,0,0,1-.37-.91,1.26,1.26,0,0,1,1.27-1.29,1.27,1.27,0,0,1,.92.37,1.28,1.28,0,0,1,0,1.82A1.26,1.26,0,0,1,91.56,102.15Zm1,15.43h-2V105.27h2Z" transform="translate(-6.61 -78.67)"/><path class="cls-3" d="M102.22,117.46a3.81,3.81,0,0,1-1.84.38q-3.23,0-3.23-3.61V107H95v-1.68h2.12v-3l2-.64v3.64h3.1V107h-3.1v6.94a2.88,2.88,0,0,0,.42,1.77,1.68,1.68,0,0,0,1.39.53,2.07,2.07,0,0,0,1.29-.41Z" transform="translate(-6.61 -78.67)"/><path class="cls-3" d="M114.75,111.92h-8.69a4.6,4.6,0,0,0,1.11,3.17,3.81,3.81,0,0,0,2.91,1.12,6,6,0,0,0,3.82-1.37v1.85a7.14,7.14,0,0,1-4.29,1.18,5.2,5.2,0,0,1-4.1-1.68,6.86,6.86,0,0,1-1.49-4.72,6.73,6.73,0,0,1,1.63-4.68,5.22,5.22,0,0,1,4-1.81,4.63,4.63,0,0,1,3.74,1.56,6.51,6.51,0,0,1,1.32,4.34Zm-2-1.67a4,4,0,0,0-.82-2.66,2.8,2.8,0,0,0-2.25-1,3.18,3.18,0,0,0-2.37,1,4.52,4.52,0,0,0-1.2,2.61Z" transform="translate(-6.61 -78.67)"/><text class="cls-4" transform="translate(108.92 39.81)">S<tspan class="cls-5" x="15.43" y="0">oft</tspan><tspan class="cls-6" x="46.36" y="0">ek</tspan></text><path class="cls-7" d="M27.7,94.86H16.23v20.76s26.46,7,23.55-19.74l-.05-.48" transform="translate(-6.61 -78.67)"/><path class="cls-8" d="M20,108.79l11.47-.26L31,87.78S4.42,81.35,7.93,108l.07.48" transform="translate(-6.61 -78.67)"/></svg>