<svg id="Layer_1" data-name="Layer 1" xmlns="http://www.w3.org/2000/svg" xmlns:xlink="http://www.w3.org/1999/xlink" viewBox="0 0 91.79 16.95"><defs><style>.cls-1,.cls-2{fill:none;stroke-miterlimit:10;stroke-width:2px;}.cls-1{stroke:url(#linear-gradient);}.cls-2{stroke:url(#linear-gradient-2);}.cls-3{fill:#00fff4;}.cls-4{fill:#00a2de;}</style><linearGradient id="linear-gradient" x1="6" y1="52.42" x2="20.11" y2="52.42" gradientUnits="userSpaceOnUse"><stop offset="0" stop-color="#00a7bf"/><stop offset="1" stop-color="#00fff4"/></linearGradient><linearGradient id="linear-gradient-2" x1="-54" y1="-32.39" x2="-39.89" y2="-32.39" gradientTransform="translate(-39.05 17.2) rotate(178.72)" xlink:href="#linear-gradient"/></defs><title>logo1</title><path class="cls-1" d="M12.85,46.92H7V57.5s13.48,3.58,12-10.05l0-.24" transform="translate(-1.61 -41.97)"/><path class="cls-2" d="M8.94,54l5.84-.13-.24-10.57S1,40,2.77,53.64l0,.24" transform="translate(-1.61 -41.97)"/><path class="cls-3" d="M24.52,49.14h14q.82,0,.82,1t-.82,1h-14v3q0,2,3.87,2H38.54a.8.8,0,0,1,.89.91q0,1-.89,1H28.32q-6.19,0-6.19-3.84V46q0-3.91,6.4-3.91H31.3q.84,0,.84.94t-.84.91H29.44q-4.92,0-4.92,2.06Z" transform="translate(-1.61 -41.97)"/><path class="cls-3" d="M42.71,58h-1V48.72h1Z" transform="translate(-1.61 -41.97)"/><path class="cls-3" d="M45.26,50.14A.63.63,0,0,1,44.8,50a.62.62,0,0,1-.19-.47.64.64,0,0,1,.65-.66.65.65,0,0,1,.47.19.63.63,0,0,1,.19.47.62.62,0,0,1-.19.46A.64.64,0,0,1,45.26,50.14ZM45.75,58h-1V51.73h1Z" transform="translate(-1.61 -41.97)"/><path class="cls-3" d="M50.69,57.94a1.94,1.94,0,0,1-.94.2q-1.65,0-1.65-1.84V52.59H47v-.86h1.08V50.2l1-.32v1.86h1.58v.86H49.11v3.53a1.46,1.46,0,0,0,.21.9.85.85,0,0,0,.71.27,1.05,1.05,0,0,0,.66-.21Z" transform="translate(-1.61 -41.97)"/><path class="cls-3" d="M57.07,55.12H52.65a2.35,2.35,0,0,0,.56,1.62,1.94,1.94,0,0,0,1.48.57,3.08,3.08,0,0,0,1.95-.7v.94a3.63,3.63,0,0,1-2.19.6,2.65,2.65,0,0,1-2.09-.85,3.5,3.5,0,0,1-.76-2.4,3.43,3.43,0,0,1,.83-2.38,2.66,2.66,0,0,1,2.06-.92,2.36,2.36,0,0,1,1.9.8,3.32,3.32,0,0,1,.67,2.21Zm-1-.85a2,2,0,0,0-.42-1.35,1.43,1.43,0,0,0-1.15-.48,1.62,1.62,0,0,0-1.21.51,2.31,2.31,0,0,0-.61,1.33Z" transform="translate(-1.61 -41.97)"/><path class="cls-4" d="M60.77,49a3.84,3.84,0,0,1,.89.09,4.69,4.69,0,0,1,.67.21,4,4,0,0,1,.56.29l-.7,1.2a2.76,2.76,0,0,0-.41-.2l-.45-.14a2.16,2.16,0,0,0-.56-.07,1.23,1.23,0,0,0-.55.11,1.19,1.19,0,0,0-.37.28,1.12,1.12,0,0,0-.28.71.8.8,0,0,0,.34.71,3,3,0,0,0,.86.38q.52.15,1.12.28a4.4,4.4,0,0,1,1.12.42,2.44,2.44,0,0,1,.86.79,2.47,2.47,0,0,1,.34,1.4A2.62,2.62,0,0,1,64,56.5a2.67,2.67,0,0,1-.68.91,3.28,3.28,0,0,1-1.08.61,4.36,4.36,0,0,1-1.46.23,4.41,4.41,0,0,1-1.14-.13,4.59,4.59,0,0,1-.87-.32,4.31,4.31,0,0,1-.65-.39l-.49-.34.71-1.2a4.65,4.65,0,0,0,1.38.8,3.47,3.47,0,0,0,1.05.21,3,3,0,0,0,.75-.09,2.47,2.47,0,0,0,.67-.28,1.49,1.49,0,0,0,.48-.46,1.13,1.13,0,0,0,.18-.64,1,1,0,0,0-.2-.65,1.61,1.61,0,0,0-.53-.42,3.44,3.44,0,0,0-.75-.28l-.85-.23q-.43-.12-.85-.28a2.67,2.67,0,0,1-.75-.43,2,2,0,0,1-.53-.68,2.27,2.27,0,0,1-.2-1,2.23,2.23,0,0,1,.3-1.2,2.54,2.54,0,0,1,.71-.77,2.86,2.86,0,0,1,.85-.4A2.78,2.78,0,0,1,60.77,49Z" transform="translate(-1.61 -41.97)"/><path class="cls-4" d="M68.75,58.36a2.88,2.88,0,0,1-2.35-1,3.86,3.86,0,0,1-.8-2.55,3.42,3.42,0,0,1,.85-2.37,2.89,2.89,0,0,1,2.27-.95,2.69,2.69,0,0,1,2.23,1A3.81,3.81,0,0,1,71.73,55a3.62,3.62,0,0,1-.83,2.39A2.67,2.67,0,0,1,68.75,58.36Zm0-.78a1.63,1.63,0,0,0,.89-.24,2.56,2.56,0,0,0,.76-.86,3.28,3.28,0,0,0,.38-1.7,3,3,0,0,0-.52-1.71,1.71,1.71,0,0,0-1.52-.77,1.8,1.8,0,0,0-1.54.73A3.16,3.16,0,0,0,66.61,55,2.76,2.76,0,0,0,67,56.55a2.68,2.68,0,0,0,.78.8A1.76,1.76,0,0,0,68.7,57.58Z" transform="translate(-1.61 -41.97)"/><path class="cls-4" d="M73.63,51.64v-.51a2.7,2.7,0,0,1,.6-1.91,2.15,2.15,0,0,1,1.64-.64,3,3,0,0,1,.74.09,1.75,1.75,0,0,1,.53.21l-.42.83a2.63,2.63,0,0,0-.38-.2,1.3,1.3,0,0,0-.55-.13,1.15,1.15,0,0,0-1,.37,1.22,1.22,0,0,0-.2.66c0,.31,0,.72,0,1.24h1.56l-.09.81H74.6v5.8h-1v-5.8h-.89v-.81Z" transform="translate(-1.61 -41.97)"/><path class="cls-4" d="M76.52,51.64h1V50h1v1.67H80l-.1.84H78.44V56.3a1.9,1.9,0,0,0,.19.91.62.62,0,0,0,.58.34,2.94,2.94,0,0,0,.54-.06l.43-.1.07.84-.52.08a5.15,5.15,0,0,1-.62.05A1.76,1.76,0,0,1,77.9,58a1.87,1.87,0,0,1-.43-1.43V52.48h-1Z" transform="translate(-1.61 -41.97)"/><path class="cls-4" d="M86.68,55.37H82.25A2.35,2.35,0,0,0,82.81,57a1.94,1.94,0,0,0,1.48.57,3.08,3.08,0,0,0,1.95-.7v.94a3.63,3.63,0,0,1-2.19.6A2.65,2.65,0,0,1,82,57.54a3.5,3.5,0,0,1-.76-2.4A3.43,3.43,0,0,1,82,52.75a2.66,2.66,0,0,1,2.06-.92,2.36,2.36,0,0,1,1.9.8,3.32,3.32,0,0,1,.67,2.21Zm-1-.85a2,2,0,0,0-.42-1.35,1.43,1.43,0,0,0-1.15-.48,1.62,1.62,0,0,0-1.21.51,2.31,2.31,0,0,0-.61,1.33Z" transform="translate(-1.61 -41.97)"/><path class="cls-4" d="M93.4,58.25H92l-2.77-3h0v3h-1V49h1v5.88h0L91.86,52h1.32l-2.91,3Z" transform="translate(-1.61 -41.97)"/></svg>